<mxfile host="app.diagrams.net" modified="2024-02-28T08:05:43.711Z" agent="Mozilla/5.0 (Windows NT 10.0; Win64; x64) AppleWebKit/537.36 (KHTML, like Gecko) Chrome/122.0.0.0 Safari/537.36" etag="H_nQy3CzNFFlaXIthY56" version="23.1.5" type="device" pages="2">
  <diagram name="Page-1" id="3NOlI5YgGFhrqcbVbegV">
    <mxGraphModel dx="1434" dy="780" grid="1" gridSize="10" guides="1" tooltips="1" connect="1" arrows="1" fold="1" page="1" pageScale="1" pageWidth="827" pageHeight="1169" math="0" shadow="0">
      <root>
        <mxCell id="0" />
        <mxCell id="1" parent="0" />
        <mxCell id="WUT2AVNJbaeFNxMrnJXd-8" style="edgeStyle=orthogonalEdgeStyle;rounded=0;orthogonalLoop=1;jettySize=auto;html=1;exitX=0.5;exitY=1;exitDx=0;exitDy=0;endArrow=none;endFill=0;" parent="1" source="WUT2AVNJbaeFNxMrnJXd-1" target="WUT2AVNJbaeFNxMrnJXd-3" edge="1">
          <mxGeometry relative="1" as="geometry" />
        </mxCell>
        <mxCell id="WUT2AVNJbaeFNxMrnJXd-9" style="edgeStyle=orthogonalEdgeStyle;rounded=0;orthogonalLoop=1;jettySize=auto;html=1;exitX=0.5;exitY=0;exitDx=0;exitDy=0;entryX=0.5;entryY=0;entryDx=0;entryDy=0;endArrow=none;endFill=0;" parent="1" source="WUT2AVNJbaeFNxMrnJXd-5" target="WUT2AVNJbaeFNxMrnJXd-4" edge="1">
          <mxGeometry relative="1" as="geometry" />
        </mxCell>
        <mxCell id="WUT2AVNJbaeFNxMrnJXd-10" style="edgeStyle=orthogonalEdgeStyle;rounded=0;orthogonalLoop=1;jettySize=auto;html=1;exitX=0.5;exitY=1;exitDx=0;exitDy=0;endArrow=none;endFill=0;" parent="1" source="WUT2AVNJbaeFNxMrnJXd-1" target="WUT2AVNJbaeFNxMrnJXd-4" edge="1">
          <mxGeometry relative="1" as="geometry" />
        </mxCell>
        <mxCell id="WUT2AVNJbaeFNxMrnJXd-11" style="edgeStyle=orthogonalEdgeStyle;rounded=0;orthogonalLoop=1;jettySize=auto;html=1;exitX=0.5;exitY=1;exitDx=0;exitDy=0;entryX=0.5;entryY=0;entryDx=0;entryDy=0;endArrow=none;endFill=0;" parent="1" source="WUT2AVNJbaeFNxMrnJXd-1" target="WUT2AVNJbaeFNxMrnJXd-2" edge="1">
          <mxGeometry relative="1" as="geometry" />
        </mxCell>
        <mxCell id="WUT2AVNJbaeFNxMrnJXd-1" value="&lt;font style=&quot;font-size: 21px;&quot;&gt;Accueil&lt;/font&gt;" style="rounded=1;whiteSpace=wrap;html=1;" parent="1" vertex="1">
          <mxGeometry x="324.00000000000006" y="70" width="160" height="80" as="geometry" />
        </mxCell>
        <mxCell id="WUT2AVNJbaeFNxMrnJXd-18" style="edgeStyle=orthogonalEdgeStyle;rounded=0;orthogonalLoop=1;jettySize=auto;html=1;exitX=0.5;exitY=1;exitDx=0;exitDy=0;endArrow=none;endFill=0;" parent="1" source="WUT2AVNJbaeFNxMrnJXd-2" target="WUT2AVNJbaeFNxMrnJXd-17" edge="1">
          <mxGeometry relative="1" as="geometry" />
        </mxCell>
        <mxCell id="WUT2AVNJbaeFNxMrnJXd-2" value="&lt;span style=&quot;font-size: 21px;&quot;&gt;Articles (blog)&lt;/span&gt;" style="rounded=1;whiteSpace=wrap;html=1;" parent="1" vertex="1">
          <mxGeometry x="30" y="190" width="160" height="80" as="geometry" />
        </mxCell>
        <mxCell id="WUT2AVNJbaeFNxMrnJXd-20" style="edgeStyle=orthogonalEdgeStyle;rounded=0;orthogonalLoop=1;jettySize=auto;html=1;exitX=0.5;exitY=1;exitDx=0;exitDy=0;entryX=0.5;entryY=0;entryDx=0;entryDy=0;endArrow=none;endFill=0;" parent="1" source="WUT2AVNJbaeFNxMrnJXd-3" target="WUT2AVNJbaeFNxMrnJXd-19" edge="1">
          <mxGeometry relative="1" as="geometry" />
        </mxCell>
        <mxCell id="WUT2AVNJbaeFNxMrnJXd-3" value="&lt;span style=&quot;font-size: 21px;&quot;&gt;Documentaires (blog)&lt;/span&gt;" style="rounded=1;whiteSpace=wrap;html=1;" parent="1" vertex="1">
          <mxGeometry x="230" y="190" width="160" height="80" as="geometry" />
        </mxCell>
        <mxCell id="WUT2AVNJbaeFNxMrnJXd-22" style="edgeStyle=orthogonalEdgeStyle;rounded=0;orthogonalLoop=1;jettySize=auto;html=1;exitX=0.5;exitY=1;exitDx=0;exitDy=0;entryX=0.5;entryY=0;entryDx=0;entryDy=0;endArrow=none;endFill=0;" parent="1" source="WUT2AVNJbaeFNxMrnJXd-4" target="WUT2AVNJbaeFNxMrnJXd-21" edge="1">
          <mxGeometry relative="1" as="geometry" />
        </mxCell>
        <mxCell id="WUT2AVNJbaeFNxMrnJXd-4" value="&lt;span style=&quot;font-size: 21px;&quot;&gt;Evènements&lt;br&gt;(blog)&lt;br&gt;&lt;/span&gt;" style="rounded=1;whiteSpace=wrap;html=1;" parent="1" vertex="1">
          <mxGeometry x="430" y="190" width="160" height="80" as="geometry" />
        </mxCell>
        <mxCell id="WUT2AVNJbaeFNxMrnJXd-5" value="&lt;span style=&quot;font-size: 21px;&quot;&gt;Inscription/&lt;br&gt;Connection&lt;/span&gt;" style="rounded=1;whiteSpace=wrap;html=1;" parent="1" vertex="1">
          <mxGeometry x="620" y="190" width="160" height="80" as="geometry" />
        </mxCell>
        <mxCell id="8STsFo_Tg5Htc4X2_iGp-2" style="edgeStyle=orthogonalEdgeStyle;rounded=0;orthogonalLoop=1;jettySize=auto;html=1;exitX=0.5;exitY=0;exitDx=0;exitDy=0;entryX=0.5;entryY=1;entryDx=0;entryDy=0;endArrow=none;endFill=0;" parent="1" source="WUT2AVNJbaeFNxMrnJXd-6" target="WUT2AVNJbaeFNxMrnJXd-5" edge="1">
          <mxGeometry relative="1" as="geometry">
            <Array as="points">
              <mxPoint x="700" y="290" />
              <mxPoint x="700" y="290" />
            </Array>
          </mxGeometry>
        </mxCell>
        <mxCell id="WUT2AVNJbaeFNxMrnJXd-6" value="&lt;span style=&quot;font-size: 21px;&quot;&gt;Historique&lt;/span&gt;" style="rounded=1;whiteSpace=wrap;html=1;" parent="1" vertex="1">
          <mxGeometry x="620" y="300" width="160" height="80" as="geometry" />
        </mxCell>
        <mxCell id="WUT2AVNJbaeFNxMrnJXd-25" style="edgeStyle=orthogonalEdgeStyle;rounded=0;orthogonalLoop=1;jettySize=auto;html=1;exitX=0.5;exitY=1;exitDx=0;exitDy=0;entryX=0.5;entryY=1;entryDx=0;entryDy=0;endArrow=none;endFill=0;" parent="1" source="WUT2AVNJbaeFNxMrnJXd-17" target="WUT2AVNJbaeFNxMrnJXd-1" edge="1">
          <mxGeometry relative="1" as="geometry">
            <mxPoint x="420" y="160" as="targetPoint" />
            <Array as="points">
              <mxPoint x="110" y="400" />
              <mxPoint x="10" y="400" />
              <mxPoint x="10" y="170" />
              <mxPoint x="404" y="170" />
            </Array>
          </mxGeometry>
        </mxCell>
        <mxCell id="WUT2AVNJbaeFNxMrnJXd-17" value="&lt;span style=&quot;font-size: 21px;&quot;&gt;Articles&lt;/span&gt;" style="rounded=1;whiteSpace=wrap;html=1;" parent="1" vertex="1">
          <mxGeometry x="30" y="300" width="160" height="80" as="geometry" />
        </mxCell>
        <mxCell id="WUT2AVNJbaeFNxMrnJXd-26" style="edgeStyle=orthogonalEdgeStyle;rounded=0;orthogonalLoop=1;jettySize=auto;html=1;exitX=0.5;exitY=1;exitDx=0;exitDy=0;entryX=0.5;entryY=1;entryDx=0;entryDy=0;endArrow=none;endFill=0;" parent="1" source="WUT2AVNJbaeFNxMrnJXd-19" target="WUT2AVNJbaeFNxMrnJXd-17" edge="1">
          <mxGeometry relative="1" as="geometry" />
        </mxCell>
        <mxCell id="WUT2AVNJbaeFNxMrnJXd-19" value="&lt;span style=&quot;font-size: 21px;&quot;&gt;Documentaires (articles)&lt;/span&gt;" style="rounded=1;whiteSpace=wrap;html=1;" parent="1" vertex="1">
          <mxGeometry x="230" y="300" width="160" height="80" as="geometry" />
        </mxCell>
        <mxCell id="WUT2AVNJbaeFNxMrnJXd-27" style="edgeStyle=orthogonalEdgeStyle;rounded=0;orthogonalLoop=1;jettySize=auto;html=1;exitX=0.5;exitY=1;exitDx=0;exitDy=0;entryX=0.5;entryY=1;entryDx=0;entryDy=0;endArrow=none;endFill=0;" parent="1" source="WUT2AVNJbaeFNxMrnJXd-21" target="WUT2AVNJbaeFNxMrnJXd-19" edge="1">
          <mxGeometry relative="1" as="geometry" />
        </mxCell>
        <mxCell id="WUT2AVNJbaeFNxMrnJXd-21" value="&lt;span style=&quot;font-size: 21px;&quot;&gt;Evènements&lt;br&gt;(articles)&lt;/span&gt;" style="rounded=1;whiteSpace=wrap;html=1;" parent="1" vertex="1">
          <mxGeometry x="430" y="300" width="160" height="80" as="geometry" />
        </mxCell>
        <mxCell id="WUT2AVNJbaeFNxMrnJXd-33" value="&lt;font style=&quot;font-size: 30px;&quot;&gt;Arborescence&amp;nbsp;&amp;nbsp;&lt;/font&gt;" style="text;html=1;align=center;verticalAlign=middle;whiteSpace=wrap;rounded=0;" parent="1" vertex="1">
          <mxGeometry x="90" y="30" width="60" height="30" as="geometry" />
        </mxCell>
      </root>
    </mxGraphModel>
  </diagram>
  <diagram id="8Xj6s4WwI5Fz-j9W5gPw" name="Page-2">
    <mxGraphModel dx="1434" dy="780" grid="1" gridSize="10" guides="1" tooltips="1" connect="1" arrows="1" fold="1" page="1" pageScale="1" pageWidth="827" pageHeight="1169" math="0" shadow="0">
      <root>
        <mxCell id="0" />
        <mxCell id="1" parent="0" />
        <mxCell id="uZkBwTXbdrf-NbMscQa5-1" style="edgeStyle=orthogonalEdgeStyle;rounded=0;orthogonalLoop=1;jettySize=auto;html=1;exitX=0.5;exitY=1;exitDx=0;exitDy=0;endArrow=none;endFill=0;" edge="1" parent="1" source="uZkBwTXbdrf-NbMscQa5-5" target="uZkBwTXbdrf-NbMscQa5-9">
          <mxGeometry relative="1" as="geometry" />
        </mxCell>
        <mxCell id="uZkBwTXbdrf-NbMscQa5-3" style="edgeStyle=orthogonalEdgeStyle;rounded=0;orthogonalLoop=1;jettySize=auto;html=1;exitX=0.5;exitY=1;exitDx=0;exitDy=0;endArrow=none;endFill=0;" edge="1" parent="1" source="uZkBwTXbdrf-NbMscQa5-5" target="uZkBwTXbdrf-NbMscQa5-11">
          <mxGeometry relative="1" as="geometry" />
        </mxCell>
        <mxCell id="uZkBwTXbdrf-NbMscQa5-4" style="edgeStyle=orthogonalEdgeStyle;rounded=0;orthogonalLoop=1;jettySize=auto;html=1;exitX=0.5;exitY=1;exitDx=0;exitDy=0;entryX=0.5;entryY=0;entryDx=0;entryDy=0;endArrow=none;endFill=0;" edge="1" parent="1" source="uZkBwTXbdrf-NbMscQa5-5" target="uZkBwTXbdrf-NbMscQa5-7">
          <mxGeometry relative="1" as="geometry" />
        </mxCell>
        <mxCell id="uZkBwTXbdrf-NbMscQa5-5" value="&lt;font style=&quot;font-size: 21px;&quot;&gt;Accueil&lt;/font&gt;" style="rounded=1;whiteSpace=wrap;html=1;" vertex="1" parent="1">
          <mxGeometry x="230.00000000000006" y="70" width="160" height="80" as="geometry" />
        </mxCell>
        <mxCell id="uZkBwTXbdrf-NbMscQa5-6" style="edgeStyle=orthogonalEdgeStyle;rounded=0;orthogonalLoop=1;jettySize=auto;html=1;exitX=0.5;exitY=1;exitDx=0;exitDy=0;endArrow=none;endFill=0;" edge="1" parent="1" source="uZkBwTXbdrf-NbMscQa5-7" target="uZkBwTXbdrf-NbMscQa5-16">
          <mxGeometry relative="1" as="geometry" />
        </mxCell>
        <mxCell id="uZkBwTXbdrf-NbMscQa5-7" value="&lt;span style=&quot;font-size: 21px;&quot;&gt;Articles (blog)&lt;/span&gt;" style="rounded=1;whiteSpace=wrap;html=1;" vertex="1" parent="1">
          <mxGeometry x="30" y="190" width="160" height="80" as="geometry" />
        </mxCell>
        <mxCell id="uZkBwTXbdrf-NbMscQa5-8" style="edgeStyle=orthogonalEdgeStyle;rounded=0;orthogonalLoop=1;jettySize=auto;html=1;exitX=0.5;exitY=1;exitDx=0;exitDy=0;entryX=0.5;entryY=0;entryDx=0;entryDy=0;endArrow=none;endFill=0;" edge="1" parent="1" source="uZkBwTXbdrf-NbMscQa5-9" target="uZkBwTXbdrf-NbMscQa5-18">
          <mxGeometry relative="1" as="geometry" />
        </mxCell>
        <mxCell id="uZkBwTXbdrf-NbMscQa5-9" value="&lt;span style=&quot;font-size: 21px;&quot;&gt;Statistiques (blog)&lt;/span&gt;" style="rounded=1;whiteSpace=wrap;html=1;" vertex="1" parent="1">
          <mxGeometry x="230" y="190" width="160" height="80" as="geometry" />
        </mxCell>
        <mxCell id="uZkBwTXbdrf-NbMscQa5-10" style="edgeStyle=orthogonalEdgeStyle;rounded=0;orthogonalLoop=1;jettySize=auto;html=1;exitX=0.5;exitY=1;exitDx=0;exitDy=0;entryX=0.5;entryY=0;entryDx=0;entryDy=0;endArrow=none;endFill=0;" edge="1" parent="1" source="uZkBwTXbdrf-NbMscQa5-11" target="uZkBwTXbdrf-NbMscQa5-20">
          <mxGeometry relative="1" as="geometry" />
        </mxCell>
        <mxCell id="uZkBwTXbdrf-NbMscQa5-11" value="&lt;span style=&quot;font-size: 21px;&quot;&gt;Evènements&lt;br&gt;(blog)&lt;br&gt;&lt;/span&gt;" style="rounded=1;whiteSpace=wrap;html=1;" vertex="1" parent="1">
          <mxGeometry x="430" y="190" width="160" height="80" as="geometry" />
        </mxCell>
        <mxCell id="uZkBwTXbdrf-NbMscQa5-15" style="edgeStyle=orthogonalEdgeStyle;rounded=0;orthogonalLoop=1;jettySize=auto;html=1;exitX=0.5;exitY=1;exitDx=0;exitDy=0;entryX=0.5;entryY=1;entryDx=0;entryDy=0;endArrow=none;endFill=0;" edge="1" parent="1" source="uZkBwTXbdrf-NbMscQa5-16" target="uZkBwTXbdrf-NbMscQa5-5">
          <mxGeometry relative="1" as="geometry">
            <mxPoint x="420" y="160" as="targetPoint" />
            <Array as="points">
              <mxPoint x="110" y="400" />
              <mxPoint x="10" y="400" />
              <mxPoint x="10" y="170" />
              <mxPoint x="310" y="170" />
            </Array>
          </mxGeometry>
        </mxCell>
        <mxCell id="uZkBwTXbdrf-NbMscQa5-16" value="&lt;span style=&quot;font-size: 21px;&quot;&gt;Articles&lt;/span&gt;" style="rounded=1;whiteSpace=wrap;html=1;" vertex="1" parent="1">
          <mxGeometry x="30" y="300" width="160" height="80" as="geometry" />
        </mxCell>
        <mxCell id="uZkBwTXbdrf-NbMscQa5-17" style="edgeStyle=orthogonalEdgeStyle;rounded=0;orthogonalLoop=1;jettySize=auto;html=1;exitX=0.5;exitY=1;exitDx=0;exitDy=0;entryX=0.5;entryY=1;entryDx=0;entryDy=0;endArrow=none;endFill=0;" edge="1" parent="1" source="uZkBwTXbdrf-NbMscQa5-18" target="uZkBwTXbdrf-NbMscQa5-16">
          <mxGeometry relative="1" as="geometry" />
        </mxCell>
        <mxCell id="uZkBwTXbdrf-NbMscQa5-18" value="&lt;span style=&quot;font-size: 21px;&quot;&gt;Statistiques (articles)&lt;/span&gt;" style="rounded=1;whiteSpace=wrap;html=1;" vertex="1" parent="1">
          <mxGeometry x="230" y="300" width="160" height="80" as="geometry" />
        </mxCell>
        <mxCell id="uZkBwTXbdrf-NbMscQa5-19" style="edgeStyle=orthogonalEdgeStyle;rounded=0;orthogonalLoop=1;jettySize=auto;html=1;exitX=0.5;exitY=1;exitDx=0;exitDy=0;entryX=0.5;entryY=1;entryDx=0;entryDy=0;endArrow=none;endFill=0;" edge="1" parent="1" source="uZkBwTXbdrf-NbMscQa5-20" target="uZkBwTXbdrf-NbMscQa5-18">
          <mxGeometry relative="1" as="geometry" />
        </mxCell>
        <mxCell id="uZkBwTXbdrf-NbMscQa5-20" value="&lt;span style=&quot;font-size: 21px;&quot;&gt;Evènements&lt;br&gt;(articles)&lt;/span&gt;" style="rounded=1;whiteSpace=wrap;html=1;" vertex="1" parent="1">
          <mxGeometry x="430" y="300" width="160" height="80" as="geometry" />
        </mxCell>
        <mxCell id="uZkBwTXbdrf-NbMscQa5-21" value="&lt;font style=&quot;font-size: 30px;&quot;&gt;Arborescence&amp;nbsp;&amp;nbsp;&lt;/font&gt;" style="text;html=1;align=center;verticalAlign=middle;whiteSpace=wrap;rounded=0;" vertex="1" parent="1">
          <mxGeometry x="90" y="30" width="60" height="30" as="geometry" />
        </mxCell>
        <mxCell id="Nklxcl-ytWOflSaP0C19-1" value="&lt;span style=&quot;font-size: 21px;&quot;&gt;Articles (blog)&lt;/span&gt;" style="rounded=1;whiteSpace=wrap;html=1;" vertex="1" parent="1">
          <mxGeometry x="40" y="200" width="160" height="80" as="geometry" />
        </mxCell>
        <mxCell id="Nklxcl-ytWOflSaP0C19-2" value="&lt;span style=&quot;font-size: 21px;&quot;&gt;blog&lt;/span&gt;" style="rounded=1;whiteSpace=wrap;html=1;" vertex="1" parent="1">
          <mxGeometry x="50" y="210" width="160" height="80" as="geometry" />
        </mxCell>
      </root>
    </mxGraphModel>
  </diagram>
</mxfile>
